<?xml version="1.0" encoding="utf-8"?>
<svg xmlns="http://www.w3.org/2000/svg" viewBox="0 0 64 64" width="512" height="512">
  <path d="M19.642578 9.0234375C19.119203 9.0856875 18.609063 9.2758906 18.164062 9.5878906L16.660156 10.644531L26.414062 19.775391L35.349609 14.798828L21.208984 9.2246094C20.703484 9.0256094 20.165953 8.9611875 19.642578 9.0234375 z M 53.708984 10.140625C51.708781 10.131344 49.457406 10.566078 47.628906 11.486328C24.262076 23.263139 16.283759 27.266552 14.095703 28.369141L7.6289062 25.669922C6.5769062 25.230922 5.3842344 25.274109 4.3652344 25.787109L2.984375 26.482422L10.664062 34.359375L11.021484 41.982422L12.310547 41.332031C13.265547 40.851031 13.977766 40.007437 14.259766 39.023438L15.498047 34.693359C17.885427 34.404767 21.181532 33.543308 25.4375 31.398438C26.369104 30.928644 27.004973 30.607938 27.695312 30.259766L26.582031 49.615234L29.042969 48.375C29.768969 48.009 30.329234 47.382094 30.615234 46.621094L40.203125 20.988281L41.876953 19.892578L41.072266 23.513672C44.454266 21.808672 48.8395 19.596391 54.6875 16.650391C57.6735 15.145391 59.14 13.075031 58.625 11.957031C58.404 11.477031 57.932688 11.095734 57.304688 10.802734C57.073688 11.127734 56.759891 11.501188 56.337891 11.867188C55.227891 12.830187 52.9375 12.800781 52.9375 12.800781C52.9375 12.800781 54.804563 11.426875 55.601562 10.296875C55.015812 10.196625 54.375719 10.143719 53.708984 10.140625 z M 8 53L8 57L56 57L56 53L8 53 z" fill="#333" />
</svg>