<?xml version="1.0" encoding="utf-8"?>
<svg xmlns="http://www.w3.org/2000/svg" viewBox="0 0 48 48" width="144" height="144">
  <path d="M38.5 22h-29C6.468 22 4 24.468 4 27.5v12C4 40.328 4.672 41 5.5 41S7 40.328 7 39.5V38h34v1.5c0 .828.672 1.5 1.5 1.5s1.5-.672 1.5-1.5v-12C44 24.468 41.532 22 38.5 22zM35.5 7h-23C9.468 7 7 9.468 7 12.5v7.929C7.782 20.152 8.624 20 9.5 20H12v-1c0-2.209 1.791-4 4-4h3c2.209 0 4 1.791 4 4v1h2v-1c0-2.209 1.791-4 4-4h3c2.209 0 4 1.791 4 4v1h2.5c.876 0 1.718.152 2.5.429V12.5C41 9.468 38.532 7 35.5 7z" fill="#333" />
</svg>