<?xml version="1.0" encoding="utf-8"?>
<svg xmlns="http://www.w3.org/2000/svg" viewBox="0 0 50 50" width="500" height="500">
  <path fill="#333" d="M22 5C20.561873 5 19.15606 5.1471585 17.802734 5.4199219 A 1.0001164 1.0001164 0 0 0 18.197266 7.3808594C19.42394 7.1336227 20.698127 7 22 7C32.51003 7 41 15.48997 41 26C41 29.308221 40.153162 32.403527 38.673828 35.103516C36.656891 33.762718 34.613909 32.390317 34.152344 32.107422C33.342344 31.611422 32.162141 31.684734 30.994141 32.302734C30.373141 32.629734 28.4985 33.694516 27.5625 34.228516C26.7325 33.640516 24.802312 32.156828 21.820312 29.173828C18.837312 26.191828 17.355531 24.261594 16.769531 23.433594C17.302531 22.498594 18.369312 20.624906 18.695312 20.003906C19.321313 18.815906 19.389859 17.627172 18.880859 16.826172C18.408859 16.082172 14.104297 9.5545938 13.654297 8.9335938C12.951297 7.9575938 11.243938 7.5686719 9.7109375 8.6386719C9.6529375 8.6786719 3.9259531 12.796078 4.0019531 15.205078C4.2169531 21.838078 10.650719 29.622375 16.011719 34.984375C21.372719 40.348375 29.1545 46.784 35.8125 47L35.857422 47C38.215422 47 42.313562 41.343109 42.351562 41.287109C42.828562 40.609109 43.053281 39.827891 42.988281 39.087891C42.923281 38.347891 42.580828 37.710891 42.048828 37.337891C41.921447 37.248508 40.905313 36.584838 40.34375 36.208984C42.030042 33.187845 43 29.707267 43 26C43 14.41003 33.58997 5 22 5 z M 25.060547 16C23.259547 16 22 17.144109 22 18.787109L22 18.810547L23.472656 18.810547L23.472656 18.787109C23.472656 17.892109 24.092719 17.289062 25.011719 17.289062C25.875719 17.289062 26.509766 17.850047 26.509766 18.623047C26.509766 19.244047 26.210719 19.700969 25.011719 20.917969L22.085938 23.910156L22.085938 25L28.181641 25L28.181641 23.667969L24.238281 23.667969L24.238281 23.564453L26.076172 21.720703C27.567172 20.247703 28.048828 19.468391 28.048828 18.525391C28.048828 17.059391 26.794547 16 25.060547 16 z M 33.287109 16.21875C31.735109 18.55475 30.501938 20.508891 29.710938 21.962891L29.710938 23.363281L34 23.363281L34 25L35.503906 25L35.503906 23.363281L36.689453 23.363281L36.689453 22.035156L35.503906 22.035156L35.503906 16.21875L33.287109 16.21875 z M 33.939453 17.496094L34.023438 17.496094L34.023438 22.072266L31.164062 22.072266L31.164062 21.982422C32.186063 20.181422 33.099453 18.737094 33.939453 17.496094 z" />
</svg>