<?xml version="1.0" encoding="utf-8"?>
<svg xmlns="http://www.w3.org/2000/svg" viewBox="0 0 50 50" width="500" height="500">
  <path d="M30.4,2H7v46h36V14.6L30.4,2z M16.5,8c1.933,0,3.5,1.567,3.5,3.5c0,2.5-3.5,6.5-3.5,6.5S13,14,13,11.5 C13,9.567,14.567,8,16.5,8z M16.5,23c-0.828,0-1.5-0.672-1.5-1.5s0.672-1.5,1.5-1.5s1.5,0.672,1.5,1.5S17.328,23,16.5,23z M18,26.5 c0,0.828-0.672,1.5-1.5,1.5S15,27.328,15,26.5s0.672-1.5,1.5-1.5S18,25.672,18,26.5z M17.5,42c0,0-3.5-4-3.5-6.5 c0-1.933,1.567-3.5,3.5-3.5s3.5,1.567,3.5,3.5C21,38,17.5,42,17.5,42z M20,26.5c0-0.828,0.672-1.5,1.5-1.5s1.5,0.672,1.5,1.5 S22.328,28,21.5,28S20,27.328,20,26.5z M23.5,42c-0.828,0-1.5-0.672-1.5-1.5s0.672-1.5,1.5-1.5s1.5,0.672,1.5,1.5S24.328,42,23.5,42 z M25,26.5c0-0.828,0.672-1.5,1.5-1.5s1.5,0.672,1.5,1.5S27.328,28,26.5,28S25,27.328,25,26.5z M28.5,42c-0.828,0-1.5-0.672-1.5-1.5 s0.672-1.5,1.5-1.5s1.5,0.672,1.5,1.5S29.328,42,28.5,42z M33.5,42c-0.828,0-1.5-0.672-1.5-1.5s0.672-1.5,1.5-1.5s1.5,0.672,1.5,1.5 S34.328,42,33.5,42z M33.5,37c-0.828,0-1.5-0.672-1.5-1.5s0.672-1.5,1.5-1.5s1.5,0.672,1.5,1.5S34.328,37,33.5,37z M33.5,32 c0,0-3.5-4-3.5-6.5c0-1.933,1.567-3.5,3.5-3.5s3.5,1.567,3.5,3.5C37,28,33.5,32,33.5,32z M30,15V4.4L40.6,15H30z" fill="#23E2FF" />
</svg>